<?xml version="1.0" encoding="UTF-8" standalone="no"?><svg xmlns="http://www.w3.org/2000/svg" xmlns:xlink="http://www.w3.org/1999/xlink" contentScriptType="application/ecmascript" contentStyleType="text/css" height="555px" preserveAspectRatio="none" style="width:591px;height:555px;" version="1.1" viewBox="0 0 591 555" width="591px" zoomAndPan="magnify"><defs><filter height="300%" id="f35guqkbmtsk3" width="300%" x="-1" y="-1"><feGaussianBlur result="blurOut" stdDeviation="2.0"/><feColorMatrix in="blurOut" result="blurOut2" type="matrix" values="0 0 0 0 0 0 0 0 0 0 0 0 0 0 0 0 0 0 .4 0"/><feOffset dx="4.0" dy="4.0" in="blurOut2" result="blurOut3"/><feBlend in="SourceGraphic" in2="blurOut3" mode="normal"/></filter></defs><g><text fill="#000000" font-family="sans-serif" font-size="18" lengthAdjust="spacingAndGlyphs" textLength="196" x="201" y="16.708">Components to Nodes</text><!--class PluginEntry--><rect fill="#FEFECE" filter="url(#f35guqkbmtsk3)" height="124.8281" id="PluginEntry" style="stroke: #A80036; stroke-width: 1.5;" width="168" x="6" y="204.9531"/><ellipse cx="50.75" cy="220.9531" fill="#ADD1B2" rx="11" ry="11" style="stroke: #A80036; stroke-width: 1.0;"/><path d="M53.0938,216.625 L53.2656,216.7031 C53.4844,216.3906 53.6875,216.2969 53.9844,216.2969 C54.2813,216.2969 54.5625,216.4375 54.7188,216.7031 C54.8125,216.8594 54.8281,216.9844 54.8281,217.4219 L54.8281,218.8438 C54.8281,219.2656 54.7969,219.4531 54.6875,219.6094 C54.5156,219.8281 54.25,219.9688 53.9844,219.9688 C53.7656,219.9688 53.5313,219.8594 53.3906,219.7188 C53.25,219.5938 53.2188,219.4688 53.1563,219.0625 C53.0625,218.6563 52.8906,218.4375 52.4063,218.1563 C51.9375,217.9063 51.3281,217.75 50.75,217.75 C49.0156,217.75 47.7656,219.0625 47.7656,220.8438 L47.7656,221.9375 C47.7656,223.6406 49.0625,224.7344 51.1094,224.7344 C51.875,224.7344 52.5625,224.6094 52.9844,224.3438 C53.1719,224.25 53.1719,224.25 53.625,223.7656 C53.8125,223.5781 54.0156,223.5 54.2344,223.5 C54.7031,223.5 55.0938,223.8906 55.0938,224.3438 C55.0938,224.7344 54.7656,225.1875 54.1875,225.5938 C53.4375,226.1406 52.2813,226.4375 51.0625,226.4375 C48.1719,226.4375 46.0625,224.5469 46.0625,221.9688 L46.0625,220.8438 C46.0625,218.125 48.0625,216.0469 50.6875,216.0469 C51.5625,216.0469 52.1563,216.1875 53.0938,216.625 Z "/><text fill="#000000" font-family="sans-serif" font-size="12" lengthAdjust="spacingAndGlyphs" textLength="70" x="71.25" y="225.1074">PluginEntry</text><line style="stroke: #A80036; stroke-width: 1.5;" x1="7" x2="173" y1="236.9531" y2="236.9531"/><rect fill="none" height="6" style="stroke: #C82930; stroke-width: 1.0;" width="6" x="14" y="245.8555"/><text fill="#000000" font-family="sans-serif" font-size="11" lengthAdjust="spacingAndGlyphs" textLength="57" x="26" y="251.1636">String key</text><rect fill="none" height="6" style="stroke: #C82930; stroke-width: 1.0;" width="6" x="14" y="258.6602"/><text fill="#000000" font-family="sans-serif" font-size="11" lengthAdjust="spacingAndGlyphs" textLength="101" x="26" y="263.9683">String className</text><rect fill="none" height="6" style="stroke: #C82930; stroke-width: 1.0;" width="6" x="14" y="271.4648"/><text fill="#000000" font-family="sans-serif" font-size="11" lengthAdjust="spacingAndGlyphs" textLength="70" x="26" y="276.7729">String name</text><rect fill="none" height="6" style="stroke: #C82930; stroke-width: 1.0;" width="6" x="14" y="284.2695"/><text fill="#000000" font-family="sans-serif" font-size="11" lengthAdjust="spacingAndGlyphs" textLength="99" x="26" y="289.5776">boolean printable</text><rect fill="none" height="6" style="stroke: #C82930; stroke-width: 1.0;" width="6" x="14" y="297.0742"/><text fill="#000000" font-family="sans-serif" font-size="11" lengthAdjust="spacingAndGlyphs" textLength="79" x="26" y="302.3823">boolean defer</text><rect fill="none" height="6" style="stroke: #C82930; stroke-width: 1.0;" width="6" x="14" y="309.8789"/><text fill="#000000" font-family="sans-serif" font-size="11" lengthAdjust="spacingAndGlyphs" textLength="142" x="26" y="315.187">transient String category</text><line style="stroke: #A80036; stroke-width: 1.5;" x1="7" x2="173" y1="321.7813" y2="321.7813"/><!--class PluginType--><rect fill="#FEFECE" filter="url(#f35guqkbmtsk3)" height="86.4141" id="PluginType" style="stroke: #A80036; stroke-width: 1.5;" width="184" x="291" y="224.4531"/><ellipse cx="339.75" cy="240.4531" fill="#ADD1B2" rx="11" ry="11" style="stroke: #A80036; stroke-width: 1.0;"/><path d="M342.0938,236.125 L342.2656,236.2031 C342.4844,235.8906 342.6875,235.7969 342.9844,235.7969 C343.2813,235.7969 343.5625,235.9375 343.7188,236.2031 C343.8125,236.3594 343.8281,236.4844 343.8281,236.9219 L343.8281,238.3438 C343.8281,238.7656 343.7969,238.9531 343.6875,239.1094 C343.5156,239.3281 343.25,239.4688 342.9844,239.4688 C342.7656,239.4688 342.5313,239.3594 342.3906,239.2188 C342.25,239.0938 342.2188,238.9688 342.1563,238.5625 C342.0625,238.1563 341.8906,237.9375 341.4063,237.6563 C340.9375,237.4063 340.3281,237.25 339.75,237.25 C338.0156,237.25 336.7656,238.5625 336.7656,240.3438 L336.7656,241.4375 C336.7656,243.1406 338.0625,244.2344 340.1094,244.2344 C340.875,244.2344 341.5625,244.1094 341.9844,243.8438 C342.1719,243.75 342.1719,243.75 342.625,243.2656 C342.8125,243.0781 343.0156,243 343.2344,243 C343.7031,243 344.0938,243.3906 344.0938,243.8438 C344.0938,244.2344 343.7656,244.6875 343.1875,245.0938 C342.4375,245.6406 341.2813,245.9375 340.0625,245.9375 C337.1719,245.9375 335.0625,244.0469 335.0625,241.4688 L335.0625,240.3438 C335.0625,237.625 337.0625,235.5469 339.6875,235.5469 C340.5625,235.5469 341.1563,235.6875 342.0938,236.125 Z "/><text fill="#000000" font-family="sans-serif" font-size="12" lengthAdjust="spacingAndGlyphs" textLength="67" x="360.25" y="244.6074">PluginType</text><rect fill="#FFFFFF" height="15.9688" style="stroke: #000000; stroke-width: 1.0; stroke-dasharray: 2.0,2.0;" width="9" x="469" y="221.4531"/><text fill="#000000" font-family="sans-serif" font-size="12" font-style="italic" lengthAdjust="spacingAndGlyphs" textLength="7" x="470" y="233.5918">T</text><line style="stroke: #A80036; stroke-width: 1.5;" x1="292" x2="474" y1="256.4531" y2="256.4531"/><rect fill="none" height="6" style="stroke: #C82930; stroke-width: 1.0;" width="6" x="299" y="265.3555"/><text fill="#000000" font-family="sans-serif" font-size="11" lengthAdjust="spacingAndGlyphs" textLength="158" x="311" y="270.6636">final PluginEntry pluginEntry</text><rect fill="none" height="6" style="stroke: #C82930; stroke-width: 1.0;" width="6" x="299" y="278.1602"/><text fill="#000000" font-family="sans-serif" font-size="11" lengthAdjust="spacingAndGlyphs" textLength="155" x="311" y="283.4683">final Class&lt;T&gt; pluginClass</text><rect fill="none" height="6" style="stroke: #C82930; stroke-width: 1.0;" width="6" x="299" y="290.9648"/><text fill="#000000" font-family="sans-serif" font-size="11" lengthAdjust="spacingAndGlyphs" textLength="145" x="311" y="296.2729">final String elementName</text><line style="stroke: #A80036; stroke-width: 1.5;" x1="292" x2="474" y1="302.8672" y2="302.8672"/><!--class Component--><rect fill="#FEFECE" filter="url(#f35guqkbmtsk3)" height="99.2188" id="Component" style="stroke: #A80036; stroke-width: 1.5;" width="231" x="267.5" y="28.9531"/><ellipse cx="342.75" cy="44.9531" fill="#ADD1B2" rx="11" ry="11" style="stroke: #A80036; stroke-width: 1.0;"/><path d="M345.0938,40.625 L345.2656,40.7031 C345.4844,40.3906 345.6875,40.2969 345.9844,40.2969 C346.2813,40.2969 346.5625,40.4375 346.7188,40.7031 C346.8125,40.8594 346.8281,40.9844 346.8281,41.4219 L346.8281,42.8438 C346.8281,43.2656 346.7969,43.4531 346.6875,43.6094 C346.5156,43.8281 346.25,43.9688 345.9844,43.9688 C345.7656,43.9688 345.5313,43.8594 345.3906,43.7188 C345.25,43.5938 345.2188,43.4688 345.1563,43.0625 C345.0625,42.6563 344.8906,42.4375 344.4063,42.1563 C343.9375,41.9063 343.3281,41.75 342.75,41.75 C341.0156,41.75 339.7656,43.0625 339.7656,44.8438 L339.7656,45.9375 C339.7656,47.6406 341.0625,48.7344 343.1094,48.7344 C343.875,48.7344 344.5625,48.6094 344.9844,48.3438 C345.1719,48.25 345.1719,48.25 345.625,47.7656 C345.8125,47.5781 346.0156,47.5 346.2344,47.5 C346.7031,47.5 347.0938,47.8906 347.0938,48.3438 C347.0938,48.7344 346.7656,49.1875 346.1875,49.5938 C345.4375,50.1406 344.2813,50.4375 343.0625,50.4375 C340.1719,50.4375 338.0625,48.5469 338.0625,45.9688 L338.0625,44.8438 C338.0625,42.125 340.0625,40.0469 342.6875,40.0469 C343.5625,40.0469 344.1563,40.1875 345.0938,40.625 Z "/><text fill="#000000" font-family="sans-serif" font-size="12" lengthAdjust="spacingAndGlyphs" textLength="72" x="363.25" y="49.1074">Component</text><line style="stroke: #A80036; stroke-width: 1.5;" x1="268.5" x2="497.5" y1="60.9531" y2="60.9531"/><rect fill="none" height="6" style="stroke: #C82930; stroke-width: 1.0;" width="6" x="275.5" y="69.8555"/><text fill="#000000" font-family="sans-serif" font-size="11" lengthAdjust="spacingAndGlyphs" textLength="204" x="287.5" y="75.1636">final Map&lt;String, String&gt; attributes</text><rect fill="none" height="6" style="stroke: #C82930; stroke-width: 1.0;" width="6" x="275.5" y="82.6602"/><text fill="#000000" font-family="sans-serif" font-size="11" lengthAdjust="spacingAndGlyphs" textLength="205" x="287.5" y="87.9683">final List&lt;Component&gt; components</text><rect fill="none" height="6" style="stroke: #C82930; stroke-width: 1.0;" width="6" x="275.5" y="95.4648"/><text fill="#000000" font-family="sans-serif" font-size="11" lengthAdjust="spacingAndGlyphs" textLength="127" x="287.5" y="100.7729">final String pluginType</text><rect fill="none" height="6" style="stroke: #C82930; stroke-width: 1.0;" width="6" x="275.5" y="108.2695"/><text fill="#000000" font-family="sans-serif" font-size="11" lengthAdjust="spacingAndGlyphs" textLength="96" x="287.5" y="113.5776">final String value</text><line style="stroke: #A80036; stroke-width: 1.5;" x1="268.5" x2="497.5" y1="120.1719" y2="120.1719"/><!--class Node--><rect fill="#FEFECE" filter="url(#f35guqkbmtsk3)" height="137.6328" id="Node" style="stroke: #A80036; stroke-width: 1.5;" width="230" x="268" y="406.9531"/><ellipse cx="362.25" cy="422.9531" fill="#ADD1B2" rx="11" ry="11" style="stroke: #A80036; stroke-width: 1.0;"/><path d="M364.5938,418.625 L364.7656,418.7031 C364.9844,418.3906 365.1875,418.2969 365.4844,418.2969 C365.7813,418.2969 366.0625,418.4375 366.2188,418.7031 C366.3125,418.8594 366.3281,418.9844 366.3281,419.4219 L366.3281,420.8438 C366.3281,421.2656 366.2969,421.4531 366.1875,421.6094 C366.0156,421.8281 365.75,421.9688 365.4844,421.9688 C365.2656,421.9688 365.0313,421.8594 364.8906,421.7188 C364.75,421.5938 364.7188,421.4688 364.6563,421.0625 C364.5625,420.6563 364.3906,420.4375 363.9063,420.1563 C363.4375,419.9063 362.8281,419.75 362.25,419.75 C360.5156,419.75 359.2656,421.0625 359.2656,422.8438 L359.2656,423.9375 C359.2656,425.6406 360.5625,426.7344 362.6094,426.7344 C363.375,426.7344 364.0625,426.6094 364.4844,426.3438 C364.6719,426.25 364.6719,426.25 365.125,425.7656 C365.3125,425.5781 365.5156,425.5 365.7344,425.5 C366.2031,425.5 366.5938,425.8906 366.5938,426.3438 C366.5938,426.7344 366.2656,427.1875 365.6875,427.5938 C364.9375,428.1406 363.7813,428.4375 362.5625,428.4375 C359.6719,428.4375 357.5625,426.5469 357.5625,423.9688 L357.5625,422.8438 C357.5625,420.125 359.5625,418.0469 362.1875,418.0469 C363.0625,418.0469 363.6563,418.1875 364.5938,418.625 Z "/><text fill="#000000" font-family="sans-serif" font-size="12" lengthAdjust="spacingAndGlyphs" textLength="33" x="382.75" y="427.1074">Node</text><line style="stroke: #A80036; stroke-width: 1.5;" x1="269" x2="497" y1="438.9531" y2="438.9531"/><rect fill="none" height="6" style="stroke: #C82930; stroke-width: 1.0;" width="6" x="276" y="447.8555"/><text fill="#000000" font-family="sans-serif" font-size="11" lengthAdjust="spacingAndGlyphs" textLength="98" x="288" y="453.1636">final Node parent</text><rect fill="none" height="6" style="stroke: #C82930; stroke-width: 1.0;" width="6" x="276" y="460.6602"/><text fill="#000000" font-family="sans-serif" font-size="11" lengthAdjust="spacingAndGlyphs" textLength="98" x="288" y="465.9683">final String name</text><rect fill="none" height="6" style="stroke: #C82930; stroke-width: 1.0;" width="6" x="276" y="473.4648"/><text fill="#000000" font-family="sans-serif" font-size="11" lengthAdjust="spacingAndGlyphs" textLength="68" x="288" y="478.7729">String value</text><rect fill="none" height="6" style="stroke: #C82930; stroke-width: 1.0;" width="6" x="276" y="486.2695"/><text fill="#000000" font-family="sans-serif" font-size="11" lengthAdjust="spacingAndGlyphs" textLength="141" x="288" y="491.5776">final PluginType&lt;?&gt; type</text><rect fill="none" height="6" style="stroke: #C82930; stroke-width: 1.0;" width="6" x="276" y="499.0742"/><text fill="#000000" font-family="sans-serif" font-size="11" lengthAdjust="spacingAndGlyphs" textLength="204" x="288" y="504.3823">final Map&lt;String, String&gt; attributes</text><rect fill="none" height="6" style="stroke: #C82930; stroke-width: 1.0;" width="6" x="276" y="511.8789"/><text fill="#000000" font-family="sans-serif" font-size="11" lengthAdjust="spacingAndGlyphs" textLength="144" x="288" y="517.187">final List&lt;Node&gt; children</text><rect fill="none" height="6" style="stroke: #C82930; stroke-width: 1.0;" width="6" x="276" y="524.6836"/><text fill="#000000" font-family="sans-serif" font-size="11" lengthAdjust="spacingAndGlyphs" textLength="74" x="288" y="529.9917">Object object</text><line style="stroke: #A80036; stroke-width: 1.5;" x1="269" x2="497" y1="536.5859" y2="536.5859"/><!--link PluginEntry to PluginType--><path d="M174.355,267.4531 C206.517,267.4531 243.586,267.4531 277.473,267.4531 " fill="none" id="PluginEntry-PluginType" style="stroke: #A80036; stroke-width: 1.0;"/><polygon fill="#A80036" points="290.781,267.4531,284.781,263.4531,278.781,267.4531,284.781,271.4531,290.781,267.4531" style="stroke: #A80036; stroke-width: 1.0;"/><text fill="#000000" font-family="sans-serif" font-size="13" lengthAdjust="spacingAndGlyphs" textLength="80" x="192.5" y="260.52">Composition</text><text fill="#000000" font-family="sans-serif" font-size="13" lengthAdjust="spacingAndGlyphs" textLength="8" x="181.948" y="263.8886">1</text><text fill="#000000" font-family="sans-serif" font-size="13" lengthAdjust="spacingAndGlyphs" textLength="8" x="275.1135" y="263.9112">1</text><!--link Component to PluginType--><path d="M383,141.1241 C383,168.4321 383,199.8531 383,224.4031 " fill="none" id="Component-PluginType" style="stroke: #A80036; stroke-width: 1.0;"/><polygon fill="#A80036" points="383,128.0971,379,134.0971,383,140.0971,387,134.0971,383,128.0971" style="stroke: #A80036; stroke-width: 1.0;"/><text fill="#000000" font-family="sans-serif" font-size="13" lengthAdjust="spacingAndGlyphs" textLength="195" x="384" y="171.02">@Plugin(name = "pluginType")</text><text fill="#000000" font-family="sans-serif" font-size="13" lengthAdjust="spacingAndGlyphs" textLength="8" x="374.4375" y="148.1939">1</text><text fill="#000000" font-family="sans-serif" font-size="13" lengthAdjust="spacingAndGlyphs" textLength="8" x="374.3625" y="213.3912">1</text><!--link PluginType to Node--><path d="M383,310.4901 C383,334.3121 383,364.9381 383,393.2901 " fill="none" id="PluginType-Node" style="stroke: #A80036; stroke-width: 1.0;"/><polygon fill="#A80036" points="383,406.5531,387,400.5531,383,394.5531,379,400.5531,383,406.5531" style="stroke: #A80036; stroke-width: 1.0;"/><text fill="#000000" font-family="sans-serif" font-size="13" lengthAdjust="spacingAndGlyphs" textLength="80" x="384" y="373.02">Composition</text><text fill="#000000" font-family="sans-serif" font-size="13" lengthAdjust="spacingAndGlyphs" textLength="8" x="374.3375" y="330.9039">1</text><text fill="#000000" font-family="sans-serif" font-size="13" lengthAdjust="spacingAndGlyphs" textLength="8" x="374.5875" y="395.7155">1</text><!--
@startuml
title Components to Nodes

class PluginEntry {
    - String key
    - String className
    - String name
    - boolean printable
    - boolean defer
    - transient String category
}

class PluginType<T> {
    - final PluginEntry pluginEntry
    - final Class<T> pluginClass
    - final String elementName
}

class Component {
    - final Map<String, String> attributes
    - final List<Component> components
    - final String pluginType
    - final String value
}

class Node {
    - final Node parent
    - final String name
    - String value
    - final PluginType<?> type
    - final Map<String, String> attributes
    - final List<Node> children
    - Object object
}

PluginType "1" *-left- "1" PluginEntry: Composition
Component "1" *-down- "1" PluginType: @Plugin(name = "pluginType")
Node "1" *-up- "1" PluginType: Composition
@enduml

PlantUML version 1.2018.06(Mon May 21 10:34:53 UTC 2018)
(GPL source distribution)
Java Runtime: Java(TM) SE Runtime Environment
JVM: Java HotSpot(TM) 64-Bit Server VM
Java Version: 1.7.0_25-b15
Operating System: Linux
Default Encoding: UTF-8
Language: en
Country: US
--></g></svg>